<!--
Объединение svg sprite(фея) под одним тегам svg а отдельные элементы
группируются тегам <g>
-->
<svg width="282" height="281" viewBox="0 0 282 281" fill="none" xmlns="http://www.w3.org/2000/svg">
	<g id="ellipse">
		<path d="M281.046 140.238C281.046 173.311 269.35 205.319 248.027 230.6C226.704 255.881 197.127 272.807 164.528 278.384C131.928 283.962 98.4069 277.831 69.8919 261.076C41.3769 244.322 19.7056 218.023 8.71076 186.831C-2.28407 155.639 -1.89401 121.564 9.81195 90.6319C21.5179 59.6999 43.7855 33.904 72.6766 17.8066C101.568 1.70918 135.221 -3.65265 167.684 2.6694C200.147 8.99146 229.328 26.5901 250.067 52.3527L225.94 71.7753C209.784 51.7061 187.052 37.9968 161.763 33.0719C136.474 28.147 110.258 32.3239 87.7522 44.8638C65.246 57.4037 47.8995 77.4987 38.7806 101.595C29.6616 125.691 29.3578 152.236 37.9227 176.534C46.4877 200.833 63.3697 221.319 85.5829 234.371C107.796 247.423 133.909 252.199 159.304 247.854C184.699 243.51 207.74 230.324 224.35 210.63C240.961 190.936 250.072 166.002 250.072 140.238H281.046Z" fill="url(#paint0_linear_13_3255)" />
		<defs>
			<linearGradient id="paint0_linear_13_3255" x1="140.893" y1="0.0849609" x2="140.893" y2="280.392" gradientUnits="userSpaceOnUse">
				<stop stop-color="#15B9B9" />
				<stop offset="1" stop-color="#3C1DFF" />
			</linearGradient>
		</defs>
	</g>
	<g id="frame">
		<g clip-path="url(#clip0_13_3280)">
			<path d="M5.12971 26.7294V7.83163C5.12971 6.71785 5.57215 5.64969 6.35971 4.86213C7.14727 4.07457 8.21543 3.63213 9.32921 3.63213H28.9269C29.2981 3.63213 29.6542 3.77961 29.9167 4.04213C30.1792 4.30465 30.3267 4.6607 30.3267 5.03196V30.229C30.3267 30.6002 30.1792 30.9563 29.9167 31.2188C29.6542 31.4813 29.2981 31.6288 28.9269 31.6288H10.0291C8.72972 31.6288 7.48353 31.1126 6.56471 30.1938C5.64589 29.275 5.12971 28.0288 5.12971 26.7294ZM27.527 28.8291V24.6296H10.0291C9.47224 24.6296 8.93816 24.8509 8.54438 25.2446C8.1506 25.6384 7.92937 26.1725 7.92937 26.7294C7.92937 27.2863 8.1506 27.8203 8.54438 28.2141C8.93816 28.6079 9.47224 28.8291 10.0291 28.8291H27.527ZM7.92937 22.3017C8.58546 21.9902 9.30282 21.829 10.0291 21.83H27.527V6.43179H9.32921C8.95795 6.43179 8.6019 6.57928 8.33938 6.84179C8.07686 7.10431 7.92937 7.46037 7.92937 7.83163V22.3017Z" stroke="red" />
			<!--
			fill линий но заполненные
			stroke просто линии
			-->
		</g>
		<defs>
			<clipPath id="clip0_13_3280">
				<rect width="33.596" height="33.596" fill="white" transform="translate(0.930237 0.83252)" />
			</clipPath>
		</defs>
	</g>
	<symbol id="rectangle" viewBox="0 0 490 26" fill="none">
		<!-- для использование где-то но обезательно повторается на листе -->
		<rect x="0.882202" y="0.984375" width="488.421" height="24.2995" rx="12.1498" fill="url(#paint0_linear_13_3274)" />
		<defs>
			<linearGradient id="paint0_linear_13_3274" x1="44.3998" y1="13.1342" x2="500.086" y2="13.1341" gradientUnits="userSpaceOnUse">
				<stop offset="0.104167" stop-color="#3C1DFF" />
				<stop offset="0.75" stop-color="#14C9C9" />
			</linearGradient>
		</defs>
	</symbol>
	<g id="vector">
		<path d="M1.5802 1.80518H17.9059M4.30113 7.58719H17.9059" stroke="white" stroke-width="2" stroke-linecap="round" />
	</g>
	<!-- Skills -->
	<g>
        <g id = "github">
            <path fill-rule="evenodd" clip-rule="evenodd" d="M44 0C19.69 0 0 19.69 0 44C0 63.47 12.595 79.915 30.085 85.745C32.285 86.13 33.11 84.81 33.11 83.655C33.11 82.61 33.055 79.145 33.055 75.46C22 77.495 19.14 72.765 18.26 70.29C17.765 69.025 15.62 65.12 13.75 64.075C12.21 63.25 10.01 61.215 13.695 61.16C17.16 61.105 19.635 64.35 20.46 65.67C24.42 72.325 30.745 70.455 33.275 69.3C33.66 66.44 34.815 64.515 36.08 63.415C26.29 62.315 16.06 58.52 16.06 41.69C16.06 36.905 17.765 32.945 20.57 29.865C20.13 28.765 18.59 24.255 21.01 18.205C21.01 18.205 24.695 17.05 33.11 22.715C36.63 21.725 40.37 21.23 44.11 21.23C47.85 21.23 51.59 21.725 55.11 22.715C63.525 16.995 67.21 18.205 67.21 18.205C69.63 24.255 68.09 28.765 67.65 29.865C70.455 32.945 72.16 36.85 72.16 41.69C72.16 58.575 61.875 62.315 52.085 63.415C53.68 64.79 55.055 67.43 55.055 71.555C55.055 77.44 55 82.17 55 83.655C55 84.81 55.825 86.185 58.025 85.745C66.7597 82.796 74.3497 77.1822 79.7268 69.6937C85.1039 62.2052 87.9974 53.219 88 44C88 19.69 68.31 0 44 0Z" fill="black" />
        </g>
		<g id="vscode">
			<path d="M8.11639 7.5H113.116V112.5H8.11639V7.5Z" fill="#F5DE19" />
			<path d="M78.6501 89.5312C79.5448 91.3485 80.9347 92.8759 82.6598 93.9375C84.3848 94.9991 86.3747 95.5515 88.4001 95.5313C92.4876 95.5313 95.1014 93.4875 95.1014 90.6562C95.1014 87.2812 92.4164 86.0738 87.9164 84.105L85.4489 83.0475C78.3239 80.0138 73.5989 76.215 73.5989 68.1825C73.5989 60.7838 79.2239 55.1475 88.0476 55.1475C90.904 54.9412 93.7579 55.5805 96.2534 56.9856C98.7488 58.3907 100.775 60.4994 102.08 63.0488L94.3664 67.98C93.864 66.716 92.9892 65.6345 91.858 64.879C90.7268 64.1236 89.3927 63.7298 88.0326 63.75C87.4392 63.6906 86.84 63.7555 86.273 63.9404C85.7061 64.1254 85.1839 64.4265 84.7397 64.8244C84.2956 65.2224 83.9392 65.7085 83.6932 66.2518C83.4473 66.7951 83.3173 67.3837 83.3114 67.98C83.3114 70.9388 85.1451 72.1388 89.3789 73.98L91.8464 75.0375C100.231 78.6338 104.971 82.2975 104.971 90.5363C104.971 99.42 97.9926 104.287 88.6214 104.287C84.97 104.52 81.3293 103.691 78.1387 101.901C74.948 100.11 72.3438 97.4342 70.6401 94.1963L78.6501 89.5312ZM43.7939 90.3863C45.3426 93.135 46.7526 95.46 50.1426 95.46C53.3826 95.46 55.4301 94.1925 55.4301 89.2612V55.71H65.2964V89.3925C65.2964 99.6075 59.2964 104.257 50.5626 104.257C47.4755 104.426 44.4095 103.657 41.7677 102.051C39.126 100.444 37.0321 98.0761 35.7614 95.2575L43.7939 90.3863Z" fill="black" />
		</g>
		<g id="git">
			<g clip-path="url(#clip0_13_2984)">
				<path d="M103.62 47.8219L57.7758 1.98038C55.1372 -0.6598 50.8552 -0.6598 48.2134 1.98038L38.6937 11.5001L50.7699 23.5763C53.5762 22.6281 56.7943 23.2642 59.0313 25.5012C61.2789 27.7525 61.9106 30.9981 60.9393 33.8134L72.5775 45.452C75.3932 44.482 78.6421 45.1095 80.891 47.3621C84.034 50.5039 84.034 55.596 80.891 58.7399C77.7471 61.8841 72.655 61.8841 69.5095 58.7399C67.1454 56.3733 66.5613 52.9013 67.7582 49.9888L56.9046 39.1352L56.9034 67.6973C57.6902 68.0863 58.4088 68.6002 59.0313 69.2189C62.1743 72.3607 62.1743 77.4532 59.0313 80.5995C55.8874 83.7422 50.7929 83.7422 47.6535 80.5995C44.5105 77.4532 44.5105 72.3611 47.6535 69.2193C48.4067 68.4658 49.3019 67.869 50.2872 67.4635V38.6352C49.3004 38.2324 48.4048 37.6353 47.6535 36.8793C45.2722 34.5013 44.6996 31.0071 45.9198 28.0831L34.0154 16.1775L2.58106 47.6099C-0.0603455 50.2525 -0.0603455 54.5349 2.58106 57.1755L48.4259 103.018C51.0652 105.658 55.3464 105.658 57.9891 103.018L103.619 57.3884C106.26 54.747 106.26 50.4621 103.619 47.8219" fill="#DE4C36" />
			</g>
			<defs>
				<clipPath id="clip0_13_2984">
					<rect width="105" height="105" fill="white" transform="translate(0.600006)" />
				</clipPath>
			</defs>
		</g>
		<g id="sass">
			<g clip-path="url(#clip0_13_2988)">
				<path d="M101.473 50.0766C97.4031 50.0975 93.8654 51.0694 90.9035 52.5063C89.8163 50.3721 88.7295 48.4708 88.538 47.076C88.3246 45.4493 88.0691 44.4561 88.3246 42.5122C88.5805 40.5683 89.7313 37.8001 89.7098 37.589C89.6888 37.3778 89.4539 36.3846 87.1099 36.3637C84.7659 36.3424 82.7413 36.8073 82.5069 37.42C82.2724 38.0326 81.825 39.4273 81.5266 40.8637C81.1217 42.9771 76.8386 50.5198 74.3881 54.471C73.5993 52.9291 72.9175 51.5765 72.768 50.499C72.5551 48.8722 72.2991 47.879 72.5551 45.9351C72.811 43.9912 73.9617 41.2235 73.9403 41.0119C73.9188 40.8007 73.6843 39.8075 71.3403 39.7866C68.9959 39.7653 66.9713 40.2302 66.7373 40.8429C66.5029 41.4559 66.247 42.8923 65.7571 44.2871C65.2667 45.6818 59.5769 58.275 58.0853 61.5285C57.4824 62.8453 56.8501 64.1487 56.1887 65.4376C56.1887 65.4376 56.1672 65.501 56.1032 65.6066C55.8954 66.0107 55.6824 66.4122 55.4643 66.811V66.8318C55.1444 67.4028 54.8035 67.9307 54.633 67.9307C54.5051 67.9307 54.2706 66.4095 54.6755 64.3387C55.5278 59.9652 57.5524 53.1615 57.5314 52.9291C57.5314 52.8022 57.9148 51.6191 56.2102 51.006C54.5476 50.3934 53.9512 51.4075 53.8017 51.4075C53.6527 51.4075 53.5458 51.7668 53.5458 51.7668C53.5458 51.7668 55.4003 44.118 50.0085 44.118C46.6418 44.118 41.9958 47.7734 39.6943 51.0694C37.078 52.4811 34.4639 53.8968 31.8521 55.3166C30.5953 56.0139 29.2951 56.7113 28.0804 57.3661C27.9949 57.2818 27.9099 57.1758 27.8244 57.0915C21.3034 50.1822 9.24203 45.3012 9.75342 36.0257C9.94537 32.6449 11.1171 23.7705 32.9178 12.9947C50.8609 4.22583 65.1392 6.65549 67.6111 12.0436C71.1484 19.7349 59.9608 34.0183 41.4204 36.0887C34.3455 36.8708 30.6373 34.1661 29.7 33.152C28.7197 32.0953 28.5703 32.0318 28.2079 32.2435C27.6115 32.5606 27.9949 33.5113 28.2079 34.0605C28.7622 35.4969 31.0422 38.0326 34.8994 39.2796C38.3091 40.378 46.5988 40.991 56.6361 37.1454C67.8666 32.8348 76.6467 20.8546 74.0682 10.8183C71.4893 0.633908 54.4411 -2.72556 38.3091 2.95799C28.7197 6.33921 18.32 11.6634 10.8402 18.594C1.95366 26.834 0.54699 33.997 1.12236 36.9976C3.18987 47.6465 18.0006 54.5771 23.9248 59.7114C23.6264 59.8804 23.349 60.0286 23.115 60.1555C20.1526 61.6132 8.85814 67.4658 6.04526 73.6568C2.84894 80.6716 6.55711 85.7009 9.00759 86.3765C16.6154 88.4686 24.4362 84.7076 28.6343 78.4953C32.8323 72.2834 32.321 64.2119 30.3819 60.5144C30.3604 60.4722 30.3394 60.4296 30.2964 60.3875C31.0637 59.9439 31.8521 59.479 32.6194 59.0354C34.0297 58.2088 35.4578 57.4126 36.9029 56.6474C36.1781 58.6126 35.6452 60.958 35.3898 64.3387C35.0699 68.3113 36.7105 73.4665 38.863 75.4947C39.8223 76.3828 40.9516 76.4037 41.6764 76.4037C44.1908 76.4037 45.3206 74.3329 46.5778 71.8819C48.112 68.8818 49.4972 65.3954 49.4972 65.3954C49.4972 65.3954 47.771 74.8191 52.4595 74.8191C54.1641 74.8191 55.8902 72.6214 56.6576 71.5017V71.5226C56.6576 71.5226 56.7001 71.4592 56.7855 71.3114C56.956 71.0368 57.0625 70.8674 57.0625 70.8674V70.8257C57.7443 69.6421 59.279 66.9587 61.559 62.5004C64.4998 56.7534 67.3342 49.5696 67.3342 49.5696C67.3342 49.5696 67.5901 51.3232 68.4635 54.239C68.9753 55.9505 70.0401 57.831 70.8929 59.648C70.2111 60.5991 69.7847 61.127 69.7847 61.127L69.8061 61.1483C69.2518 61.8665 68.6554 62.6481 67.9946 63.4094C65.6716 66.1558 62.9017 69.3045 62.5178 70.2126C62.0699 71.2901 62.1769 72.0722 63.0296 72.7062C63.6475 73.1711 64.7553 73.234 65.885 73.1711C67.9735 73.0229 69.4437 72.5158 70.1681 72.1991C71.2978 71.7976 72.619 71.1846 73.8548 70.276C76.1353 68.6067 77.52 66.2192 77.3925 63.0714C77.3285 61.3386 76.7531 59.6059 76.0498 57.9787C76.2632 57.6833 76.4547 57.3874 76.6681 57.0915C80.2694 51.8724 83.0612 46.1462 83.0612 46.1462C83.0612 46.1462 83.3172 47.8998 84.1905 50.8161C84.6169 52.2951 85.4907 53.901 86.2575 55.4643C82.8693 58.1903 80.7808 61.3594 80.0349 63.4302C78.6927 67.2759 79.7365 69.0082 81.7185 69.4097C82.6134 69.6 83.8921 69.1772 84.8298 68.7757C86.0231 68.3956 87.4298 67.7408 88.7725 66.7684C91.0529 65.0995 93.2475 62.775 93.1195 59.6272C93.0555 58.1903 92.6721 56.7743 92.1392 55.4009C95.0161 54.2182 98.7243 53.563 103.455 54.1122C113.599 55.2953 115.602 61.5706 115.218 64.2123C114.835 66.8531 112.704 68.29 112.001 68.7336C111.297 69.1777 111.063 69.3254 111.127 69.6421C111.212 70.107 111.553 70.0862 112.15 70.0014C112.981 69.8537 117.478 67.8672 117.669 63.0075C117.989 56.7956 112.022 50.0132 101.473 50.0766ZM23.2215 76.2346C19.8542 79.8687 15.1662 81.2421 13.1417 80.0803C10.9682 78.8333 11.8205 73.4665 15.9546 69.6213C18.469 67.2759 21.7083 65.0991 23.8608 63.7683C24.3507 63.4724 25.0755 63.0501 25.9493 62.5217C26.0983 62.437 26.1838 62.3948 26.1838 62.3948L26.6952 62.0776C28.2079 67.5713 26.7592 72.4103 23.2215 76.2346ZM47.7285 59.7114C46.5563 62.543 44.1058 69.7903 42.6142 69.3888C41.3354 69.0508 40.5466 63.5571 42.3582 58.1269C43.2745 55.4009 45.2136 52.147 46.3433 50.8796C48.1759 48.8509 50.2005 48.1744 50.6904 48.9991C51.3087 50.0766 48.4529 57.9365 47.7285 59.7114ZM67.9521 69.3041C67.4617 69.5578 66.9933 69.7269 66.7798 69.6C66.6309 69.5153 66.9933 69.1772 66.9933 69.1772C66.9933 69.1772 69.5292 66.473 70.5305 65.2473C71.1063 64.5291 71.7877 63.684 72.5126 62.7329V63.0075C72.5126 66.2405 69.3583 68.4169 67.9516 69.3041H67.9521ZM83.5511 65.7756C83.1887 65.5219 83.2527 64.6768 84.4674 62.0355C84.9363 61.0001 86.0441 59.2678 87.9412 57.5985C88.1541 58.2746 88.3036 58.9298 88.2821 59.5424C88.2606 63.6205 85.3202 65.1417 83.5511 65.7756Z" fill="#CD6799" />
			</g>
			<defs>
				<clipPath id="clip0_13_2988">
					<rect width="117" height="87" fill="white" transform="translate(0.799988)" />
				</clipPath>
			</defs>
		</g>
		<g id="react">
			<g clip-path="url(#clip0_13_2986)">
				<path d="M93.1056 32.7027C91.9031 32.2887 90.6904 31.9051 89.4687 31.5523C89.6739 30.7106 89.8628 29.8792 90.0305 29.0623C92.7838 15.6483 90.9839 4.84178 84.8361 1.28375C78.9416 -2.12722 69.3016 1.42949 59.5659 9.93342C58.6064 10.773 57.6682 11.6368 56.7521 12.524C56.1389 11.934 55.5149 11.3556 54.8803 10.7888C44.6767 1.69616 34.4493 -2.13608 28.3081 1.43215C22.4189 4.85374 20.675 15.0127 23.1538 27.7254C23.4004 28.9844 23.6788 30.237 23.9888 31.4819C22.5411 31.8947 21.1442 32.3342 19.8073 32.8019C7.84441 36.9881 0.204742 43.5483 0.204742 50.3529C0.204742 57.3808 8.40627 64.43 20.8661 68.7043C21.8763 69.0495 22.8948 69.3692 23.9209 69.6634C23.5876 71.0042 23.2918 72.354 23.0337 73.7114C20.6706 86.2035 22.516 96.1223 28.3893 99.5222C34.4555 103.033 44.637 99.4247 54.5506 90.7268C55.3545 90.0196 56.1407 89.2925 56.9084 88.546C57.9004 89.5066 58.9189 90.4393 59.9627 91.343C69.566 99.6365 79.0501 102.985 84.9177 99.5762C90.9782 96.055 92.948 85.3995 90.3907 72.4356C90.1892 71.42 89.9633 70.4094 89.7132 69.4047C90.4282 69.1921 91.13 68.9732 91.8141 68.7455C104.767 64.4384 113.195 57.4747 113.195 50.3529C113.195 43.5234 105.309 36.919 93.1056 32.7027ZM90.2962 64.1474C89.6783 64.3525 89.0445 64.5505 88.3983 64.7432C86.9683 60.1995 85.0386 55.3684 82.6769 50.3764C84.9305 45.5036 86.786 40.734 88.1759 36.22C89.3318 36.5558 90.4534 36.9097 91.5347 37.2832C101.991 40.8961 108.369 46.2372 108.369 50.3529C108.369 54.7367 101.481 60.4277 90.2962 64.1474ZM85.6557 73.3765C86.7865 79.1087 86.9476 84.2916 86.1986 88.3435C85.5259 91.9844 84.1727 94.4115 82.499 95.3839C78.9385 97.4526 71.3235 94.7637 63.111 87.6706C62.1401 86.8305 61.1927 85.9634 60.2699 85.0703C63.4539 81.5756 66.6357 77.5131 69.7412 73.0008C75.2036 72.5144 80.3641 71.7188 85.0439 70.6331C85.2694 71.5426 85.4734 72.4573 85.6557 73.3765ZM38.7257 95.0264C35.2468 96.2592 32.4759 96.2946 30.8009 95.3254C27.2369 93.2624 25.7552 85.298 27.7762 74.6151C28.0165 73.3527 28.2915 72.0972 28.6011 70.8502C33.2293 71.8779 38.3523 72.6168 43.8275 73.0624C46.9542 77.4776 50.2278 81.5358 53.5271 85.0894C52.8259 85.7703 52.1082 86.4338 51.3745 87.0793C46.9904 90.9252 42.5974 93.654 38.7257 95.0264ZM22.4277 64.1204C16.9181 62.2302 12.368 59.7738 9.24929 57.0933C6.44659 54.6848 5.032 52.2932 5.032 50.3529C5.032 46.2234 11.1657 40.9564 21.3962 37.3766C22.6378 36.9425 23.9372 36.5327 25.2856 36.1482C26.6997 40.7641 28.5544 45.5904 30.7925 50.4707C28.5252 55.4233 26.6441 60.3267 25.2163 64.997C24.2797 64.7278 23.3499 64.4355 22.4277 64.1204ZM27.891 26.7947C25.7676 15.9031 27.1777 7.68706 30.7268 5.62497C34.5067 3.42867 42.8653 6.56011 51.6755 14.4115C52.25 14.9247 52.8152 15.4482 53.3708 15.9819C50.0879 19.52 46.8443 23.548 43.7454 27.9371C38.4313 28.4315 33.3445 29.2253 28.6678 30.2889C28.3797 29.131 28.1206 27.9661 27.891 26.7951V26.7947ZM76.6301 38.8739C75.5255 36.9589 74.3798 35.0679 73.194 33.2024C76.7991 33.66 80.2533 34.2673 83.4969 35.0098C82.5233 38.1425 81.3095 41.4175 79.8808 44.7753C78.8365 42.7867 77.7527 40.8191 76.6301 38.8739ZM56.7544 19.4443C58.9806 21.8652 61.2104 24.5678 63.4036 27.5003C58.9546 27.2894 54.4982 27.2886 50.0491 27.4977C52.2444 24.5922 54.4932 21.8931 56.7544 19.4443ZM36.751 38.9071C35.6425 40.8367 34.5789 42.792 33.5613 44.7713C32.1559 41.4255 30.9532 38.1355 29.9712 34.9584C33.1949 34.2346 36.6327 33.6427 40.2149 33.1935C39.0159 35.0704 37.8609 36.9754 36.751 38.9067V38.9071ZM40.3177 67.8569C36.6169 67.4423 33.1274 66.881 29.9045 66.1767C30.902 62.9429 32.1312 59.5829 33.567 56.1653C34.5887 58.1461 35.6567 60.1026 36.77 62.033C37.9149 64.0176 39.1004 65.9614 40.3177 67.8569ZM56.8876 81.6027C54.5996 79.1255 52.3177 76.3848 50.0892 73.4372C52.2528 73.5222 54.4583 73.5656 56.7001 73.5656C59.0031 73.5656 61.2797 73.5138 63.5205 73.4137C61.3203 76.4145 59.0989 79.1592 56.8876 81.6027ZM79.9263 55.9907C81.4366 59.446 82.7095 62.7883 83.7203 65.9667C80.4444 66.7171 76.9073 67.3214 73.1804 67.7701C74.3746 65.8699 75.5311 63.9461 76.6491 61.9998C77.7858 60.0214 78.8784 58.0179 79.9263 55.9907ZM72.468 59.5794C70.7564 62.5634 68.9487 65.4909 67.0475 68.357C63.6038 68.6018 60.1524 68.7234 56.7001 68.7216C53.1837 68.7216 49.7635 68.6118 46.47 68.3974C44.5192 65.5378 42.677 62.6053 40.9471 59.6059H40.9476C39.2259 56.6225 37.6177 53.5745 36.1265 50.4685C37.6139 47.3618 39.2172 44.3124 40.933 41.3267L40.9326 41.3271C42.6477 38.3407 44.4753 35.4206 46.4113 32.5734C49.7714 32.3182 53.2172 32.1853 56.6996 32.1853H56.7001C60.1984 32.1853 63.6485 32.3195 67.0078 32.5765C68.9243 35.4195 70.7402 38.3295 72.4521 41.301C74.1736 44.2801 75.7981 47.3147 77.3231 50.3999C75.8138 53.5166 74.1944 56.5783 72.468 59.5794ZM82.4253 5.48056C86.2087 7.67067 87.6802 16.5024 85.303 28.0842C85.1512 28.8231 84.9808 29.5757 84.7954 30.339C80.1072 29.2528 75.0169 28.4452 69.6874 27.9433C66.5828 23.506 63.3656 19.4717 60.1361 15.9792C60.9825 15.1604 61.849 14.3628 62.7349 13.5871C71.0768 6.30141 78.8732 3.42468 82.4253 5.48056ZM56.7001 40.2263C62.2724 40.2263 66.7898 44.7603 66.7898 50.3529C66.7898 55.9456 62.2724 60.4795 56.7001 60.4795C51.1278 60.4795 46.6104 55.9456 46.6104 50.3529C46.6104 44.7603 51.1278 40.2263 56.7001 40.2263Z" fill="#00D8FF" />
			</g>
			<defs>
				<clipPath id="clip0_13_2986">
					<rect width="113" height="101" fill="white" transform="translate(0.200012)" />
				</clipPath>
			</defs>
		</g>
		<g id="redux">
			<path d="M72.7792 69.5627C76.6509 69.1619 79.5882 65.8242 79.4546 61.8184C79.3214 57.8131 75.9833 54.6086 71.9779 54.6086H71.7111C67.5718 54.7422 64.3677 58.2135 64.5013 62.3525C64.6349 64.3553 65.4357 66.091 66.6374 67.2926C62.098 76.2385 55.1554 82.7807 44.7415 88.2549C37.6652 91.9934 30.3222 93.3287 22.9792 92.3943C16.971 91.593 12.298 88.923 9.3603 84.5164C5.08817 77.9742 4.68776 70.8975 8.29268 63.8213C10.8296 58.7475 14.8345 55.009 17.3714 53.1398C16.8374 51.4041 16.0361 48.4668 15.6357 46.3307C-3.72371 60.35 -1.72084 79.3094 4.15375 88.2549C8.55949 94.9311 17.505 99.0701 27.3849 99.0701C30.055 99.0701 32.7251 98.8029 35.3955 98.1357C52.4853 94.7975 65.4361 84.65 72.7792 69.5627ZM96.2775 53.0066C86.1304 41.1234 71.1771 34.5811 54.0873 34.5811H51.9513C50.7496 32.1779 48.2128 30.5754 45.4091 30.5754H45.1419C41.0033 30.709 37.7992 34.1803 37.9324 38.3197C38.066 42.325 41.4037 45.5295 45.4091 45.5295H45.6759C48.6132 45.3959 51.1501 43.5266 52.2181 40.9898H54.6214C64.7685 40.9898 74.3812 43.927 83.0599 49.6684C89.7353 54.0746 94.5419 59.816 97.2119 66.7586C99.4816 72.3664 99.348 77.8406 96.9447 82.5139C93.2066 89.5902 86.9316 93.4623 78.6537 93.4623C73.3132 93.4623 68.2398 91.8598 65.5693 90.6582C64.1009 91.9934 61.4304 94.1295 59.5611 95.4652C65.3025 98.1352 71.1771 99.6041 76.7845 99.6041C89.6017 99.6041 99.0812 92.5275 102.686 85.4512C106.558 77.707 106.291 64.3553 96.2775 53.0066ZM28.4529 71.832C28.5865 75.8377 31.9242 79.0418 35.9296 79.0418H36.1968C40.3357 78.9086 43.5398 75.4369 43.4062 71.2979C43.273 67.2922 39.9349 64.0881 35.9296 64.0881H35.6628C35.3955 64.0881 34.9947 64.0881 34.7283 64.2213C29.2542 55.1422 26.9845 45.2623 27.7857 34.5807C28.3193 26.5697 30.9898 19.6266 35.6628 13.8852C39.5345 8.94508 47.0111 6.5418 52.0849 6.40861C66.2369 6.14139 72.2447 23.7656 72.6455 30.8422C74.3812 31.2426 77.3185 32.1775 79.3214 32.8451C77.7189 11.2156 64.3677 0 51.5509 0C39.5345 0 28.4529 8.67869 24.0468 21.4963C17.9054 38.5865 21.9107 55.009 29.3874 67.9602C28.7201 68.8947 28.3193 70.3635 28.4529 71.8324V71.832Z" fill="#764ABC" />
		</g>
		<g id="HTML">
			<path d="M22.3653 101.154L13.9428 7.4375H106.523L98.089 101.139L60.1765 111.562L22.3653 101.154Z" fill="#1572B6" />
			<path d="M60.2328 103.597L90.8703 95.174L98.0778 15.1019H60.2328V103.597Z" fill="#33A9DC" />
			<path d="M60.2328 49.054H75.5703L76.6278 37.2842H60.2328V25.7896H89.2953L89.0178 28.8724L86.1715 60.5487H60.2328V49.054Z" fill="white" />
			<path d="M60.304 78.9045L60.2515 78.9193L47.344 75.4609L46.519 66.2942H34.8828L36.5065 84.3413L60.2478 90.8788L60.304 90.864V78.9045Z" fill="#EBEBEB" />
			<path d="M74.584 60.0615L73.189 75.4534L60.2628 78.9119V90.8714L84.0228 84.3412L84.199 82.4001L86.2128 60.0615H74.584Z" fill="white" />
			<path d="M60.274 25.7896V37.2842H32.2765L32.044 34.6997L31.5153 28.8724L31.2378 25.7896H60.274ZM60.2328 49.054V60.5487H47.4865L47.254 57.9642L46.729 52.1369L46.4515 49.054H60.2328Z" fill="#EBEBEB" />
		</g>
		<g id="CSS">
			<path d="M22.9817 102.004L14.5554 7.5H107.143L98.7054 101.989L60.7929 112.5L22.9817 102.004Z" fill="#E44F26" />
			<path d="M60.8492 104.468L91.4867 95.9738L98.6942 15.2288H60.8492V104.468Z" fill="#F1662A" />
			<path d="M60.8492 50.2762H45.5117L44.4542 38.4075H60.8492V26.8162H31.7867L32.0642 29.9287L34.9104 61.8675H60.8492V50.2762ZM60.8492 80.3775L60.7967 80.3925L47.8892 76.9087L47.0642 67.665H35.4279L37.0517 85.86L60.7967 92.4525L60.8492 92.4375V80.3775Z" fill="#EBEBEB" />
			<path d="M60.8079 50.2762V61.8675H75.0804L73.7379 76.9012L60.8079 80.3887V92.4487L84.5717 85.86L84.7442 83.9025L87.4667 53.3887L87.7517 50.2762H60.8079ZM60.8079 26.8162V38.4075H88.8054L89.0379 35.805L89.5667 29.9287L89.8442 26.8162H60.8079Z" fill="white" />
		</g>
		<!--
		<svg width="200" height="200" viewBox="0 0 35 35" fill="none" xmlns="http://www.w3.org/2000/svg">
		&lt;!&ndash;ширины высота svg&ndash;&gt;
		<g clip-path="url(#clip0_13_3280)">
		<path d="M5.12971 26.7294V7.83163C5.12971 6.71785 5.57215 5.64969 6.35971 4.86213C7.14727 4.07457 8.21543 3.63213 9.32921 3.63213H28.9269C29.2981 3.63213 29.6542 3.77961 29.9167 4.04213C30.1792 4.30465 30.3267 4.6607 30.3267 5.03196V30.229C30.3267 30.6002 30.1792 30.9563 29.9167 31.2188C29.6542 31.4813 29.2981 31.6288 28.9269 31.6288H10.0291C8.72972 31.6288 7.48353 31.1126 6.56471 30.1938C5.64589 29.275 5.12971 28.0288 5.12971 26.7294ZM27.527 28.8291V24.6296H10.0291C9.47224 24.6296 8.93816 24.8509 8.54438 25.2446C8.1506 25.6384 7.92937 26.1725 7.92937 26.7294C7.92937 27.2863 8.1506 27.8203 8.54438 28.2141C8.93816 28.6079 9.47224 28.8291 10.0291 28.8291H27.527ZM7.92937 22.3017C8.58546 21.9902 9.30282 21.829 10.0291 21.83H27.527V6.43179H9.32921C8.95795 6.43179 8.6019 6.57928 8.33938 6.84179C8.07686 7.10431 7.92937 7.46037 7.92937 7.83163V22.3017Z"
		stroke="red"/>
		&lt;!&ndash; fill линий но заполненные
		stroke просто линии &ndash;&gt;
		</g>
		<defs>
		<clipPath id="clip0_13_3280">
		<rect width="33.596" height="33.596" fill="white" transform="translate(0.930237 0.83252)"/>
		</clipPath>
		</defs>
		</svg>
		
		
		<svg width="490" height="26" viewBox="0 0 490 26" fill="none" xmlns="http://www.w3.org/2000/svg">
		<rect x="0.882202" y="0.984375" width="488.421" height="24.2995" rx="12.1498" fill="url(#paint0_linear_13_3274)"/>
		<defs>
		<linearGradient id="paint0_linear_13_3274" x1="44.3998" y1="13.1342" x2="500.086" y2="13.1341" gradientUnits="userSpaceOnUse">
		<stop offset="0.104167" stop-color="#3C1DFF"/>
		<stop offset="0.75" stop-color="#14C9C9"/>
		</linearGradient>
		</defs>
		</svg>
		
		<svg width="19" height="9" viewBox="0 0 19 9" fill="none" xmlns="http://www.w3.org/2000/svg">
		<path d="M1.5802 1.80518H17.9059M4.30113 7.58719H17.9059" stroke="white" stroke-width="2" stroke-linecap="round"/>
		</svg>
		-->
	</g>
</svg>
