<svg width="282" height="281" viewBox="0 0 282 281" fill="none" xmlns="http://www.w3.org/2000/svg">
<path d="M281.046 140.238C281.046 173.311 269.35 205.319 248.027 230.6C226.704 255.881 197.127 272.807 164.528 278.384C131.928 283.962 98.4069 277.831 69.8919 261.076C41.3769 244.322 19.7056 218.023 8.71076 186.831C-2.28407 155.639 -1.89401 121.564 9.81195 90.6319C21.5179 59.6999 43.7855 33.904 72.6766 17.8066C101.568 1.70918 135.221 -3.65265 167.684 2.6694C200.147 8.99146 229.328 26.5901 250.067 52.3527L225.94 71.7753C209.784 51.7061 187.052 37.9968 161.763 33.0719C136.474 28.147 110.258 32.3239 87.7522 44.8638C65.246 57.4037 47.8995 77.4987 38.7806 101.595C29.6616 125.691 29.3578 152.236 37.9227 176.534C46.4877 200.833 63.3697 221.319 85.5829 234.371C107.796 247.423 133.909 252.199 159.304 247.854C184.699 243.51 207.74 230.324 224.35 210.63C240.961 190.936 250.072 166.002 250.072 140.238H281.046Z" fill="url(#paint0_linear_13_3255)"/>
<defs>
<linearGradient id="paint0_linear_13_3255" x1="140.893" y1="0.0849609" x2="140.893" y2="280.392" gradientUnits="userSpaceOnUse">
<stop stop-color="#15B9B9"/>
<stop offset="1" stop-color="#3C1DFF"/>
</linearGradient>
</defs>
</svg>
