<svg width="200" height="200" viewBox="0 0 35 35" fill="none" xmlns="http://www.w3.org/2000/svg">
    <!--ширины высота svg-->
    <g clip-path="url(#clip0_13_3280)">
        <path d="M5.12971 26.7294V7.83163C5.12971 6.71785 5.57215 5.64969 6.35971 4.86213C7.14727 4.07457 8.21543 3.63213 9.32921 3.63213H28.9269C29.2981 3.63213 29.6542 3.77961 29.9167 4.04213C30.1792 4.30465 30.3267 4.6607 30.3267 5.03196V30.229C30.3267 30.6002 30.1792 30.9563 29.9167 31.2188C29.6542 31.4813 29.2981 31.6288 28.9269 31.6288H10.0291C8.72972 31.6288 7.48353 31.1126 6.56471 30.1938C5.64589 29.275 5.12971 28.0288 5.12971 26.7294ZM27.527 28.8291V24.6296H10.0291C9.47224 24.6296 8.93816 24.8509 8.54438 25.2446C8.1506 25.6384 7.92937 26.1725 7.92937 26.7294C7.92937 27.2863 8.1506 27.8203 8.54438 28.2141C8.93816 28.6079 9.47224 28.8291 10.0291 28.8291H27.527ZM7.92937 22.3017C8.58546 21.9902 9.30282 21.829 10.0291 21.83H27.527V6.43179H9.32921C8.95795 6.43179 8.6019 6.57928 8.33938 6.84179C8.07686 7.10431 7.92937 7.46037 7.92937 7.83163V22.3017Z"
              stroke="red"/>
        <!-- fill линий но заполненные
        stroke просто линии -->
    </g>
    <defs>
        <clipPath id="clip0_13_3280">
            <rect width="33.596" height="33.596" fill="white" transform="translate(0.930237 0.83252)"/>
        </clipPath>
    </defs>
</svg>
